<svg width="33" height="31" viewBox="0 0 33 31" fill="none" xmlns="http://www.w3.org/2000/svg">
<g filter="url(#filter0_d)">
<path d="M19.7511 21.458H23.5011C23.6371 21.458 23.7511 21.343 23.7511 21.208V11.458C23.7511 10.906 24.2001 10.458 24.7511 10.458H26.5811L16.2681 1.525L5.92309 10.458H7.75109C8.30309 10.458 8.75109 10.906 8.75109 11.458V21.208C8.75109 21.343 8.86609 21.458 9.00109 21.458H12.7511V15.208C12.7511 14.519 13.3121 13.958 14.0011 13.958H18.5011C19.1901 13.958 19.7511 14.519 19.7511 15.208V21.458ZM23.5011 22.958H19.2511C18.6991 22.958 18.2511 22.51 18.2511 21.958V15.806C18.2511 15.614 18.0951 15.458 17.9031 15.458H14.5991C14.4071 15.458 14.2511 15.614 14.2511 15.806V21.958C14.2511 22.51 13.8031 22.958 13.2511 22.958H9.00109C8.03509 22.958 7.25109 22.174 7.25109 21.208V11.958H5.32009C4.81809 11.958 4.33009 11.694 4.11909 11.238C3.88109 10.724 4.00809 10.137 4.42609 9.769L15.2521 0.391C15.4991 0.154 15.8591 0.006 16.2401 0C16.6431 0.006 17.0041 0.154 17.2781 0.416L28.0721 9.765C28.0741 9.767 28.0751 9.768 28.0761 9.769C28.4951 10.137 28.6221 10.724 28.3841 11.238C28.1721 11.694 27.6851 11.958 27.1821 11.958H25.2511V21.208C25.2511 22.174 24.4681 22.958 23.5011 22.958Z" fill="#66676B"/>
</g>
<defs>
<filter id="filter0_d" x="0" y="0" width="32.5031" height="30.958" filterUnits="userSpaceOnUse" color-interpolation-filters="sRGB">
<feFlood flood-opacity="0" result="BackgroundImageFix"/>
<feColorMatrix in="SourceAlpha" type="matrix" values="0 0 0 0 0 0 0 0 0 0 0 0 0 0 0 0 0 0 127 0"/>
<feOffset dy="4"/>
<feGaussianBlur stdDeviation="2"/>
<feColorMatrix type="matrix" values="0 0 0 0 0 0 0 0 0 0 0 0 0 0 0 0 0 0 0.25 0"/>
<feBlend mode="normal" in2="BackgroundImageFix" result="effect1_dropShadow"/>
<feBlend mode="normal" in="SourceGraphic" in2="effect1_dropShadow" result="shape"/>
</filter>
</defs>
</svg>
